<?xml version="1.0" encoding="UTF-8" standalone="no"?> <!-- Created with Vectornator for iOS (http://vectornator.io/) --><!DOCTYPE svg PUBLIC "-//W3C//DTD SVG 1.1//EN" "http://www.w3.org/Graphics/SVG/1.1/DTD/svg11.dtd">
<svg height="50%" style="fill-rule:evenodd;clip-rule:evenodd;stroke-linecap:round;stroke-linejoin:round;" xmlns:xlink="http://www.w3.org/1999/xlink" xmlns="http://www.w3.org/2000/svg" xml:space="preserve" width="50%" xmlns:vectornator="http://vectornator.io" version="1.1" viewBox="0 0 9.464 2.72625">

<defs/>
<g id="Untitled" vectornator:layerName="Untitled">
<g opacity="1">
<path d="M3.157+2.592C3.117+2.631+3.075+2.622+3.046+2.623C2.88+2.627+2.924+2.186+2.854+1.74C2.8+1.399+2.549+1.167+2.244+1.306C2.109+1.368+2.124+1.471+2.138+1.563C2.207+2.002+2.753+2.582+2.626+2.859C2.587+2.945+2.54+2.939+2.482+2.87C2.415+2.79+2.424+2.658+2.4+2.541C2.366+2.374+2.309+2.268+2.247+2.115C2.152+1.88+1.987+1.505+1.683+1.539C1.325+1.579+1.187+1.913+1.492+2.143C1.634+2.25+1.961+2.389+2.042+2.574C2.087+2.676+2.035+2.701+1.934+2.686C1.811+2.668+1.819+2.497+1.466+2.198C1.371+2.118+1.291+2.019+1.199+1.927C1.076+1.806+0.985+1.828+0.909+1.822C0.795+1.813+0.778+1.725+0.908+1.697C1.226+1.63+1.378+1.363+1.718+1.263C2.182+1.127+2.502+1.128+2.966+1.236C3.707+1.408+4.11+1.496+4.673+1.078C4.761+1.013+4.842+0.868+4.891+0.773C4.935+0.688+4.969+0.634+5.006+0.78C5.036+0.898+4.959+1.064+4.877+1.14C4.774+1.236+4.246+1.367+4.662+1.893C4.77+2.029+4.936+2.031+5.092+2.091C5.475+2.237+5.021+2.587+4.65+2.041C4.494+1.812+4.299+1.344+3.967+1.487C3.571+1.659+4.022+2.204+4.037+2.427C4.056+2.692+3.781+2.628+3.781+2.371C3.781+1.268+3.173+1.249+2.991+1.56C2.804+1.879+3.352+2.337+3.156+2.592L3.157+2.592ZM4.828+0.733C4.686+1.015+4.45+1.563+2.909+1.163C2.503+1.057+2.08+1.077+1.678+1.204C1.479+1.267+1.378+1.352+1.223+1.477C1.04+1.625+0.742+1.591+0.73+1.711C0.698+1.996+0.954+1.862+1.096+1.931C1.127+1.946+1.657+2.451+1.724+2.56C1.804+2.69+1.88+2.76+1.984+2.744C2.112+2.724+2.155+2.665+2.103+2.543C2.006+2.317+1.596+2.233+1.444+2.011C1.342+1.861+1.375+1.755+1.514+1.66C1.789+1.473+2.022+1.733+2.152+2.03C2.216+2.175+2.305+2.371+2.339+2.525C2.366+2.646+2.37+2.813+2.446+2.912C2.523+3.012+2.629+3.006+2.684+2.89C2.774+2.7+2.573+2.341+2.497+2.187C2.402+1.993+2.246+1.828+2.198+1.627C2.122+1.306+2.422+1.267+2.609+1.413C2.762+1.586+2.782+1.652+2.804+1.816C2.858+2.08+2.783+2.495+2.957+2.638C3.053+2.717+3.148+2.704+3.213+2.6C3.326+2.423+3.165+2.207+3.087+2.017C2.988+1.774+2.972+1.424+3.337+1.461C3.594+1.487+3.652+1.83+3.7+2.036C3.747+2.236+3.677+2.5+3.815+2.607C3.916+2.685+4.007+2.668+4.067+2.558C4.16+2.388+4.02+2.231+3.938+2.045C3.845+1.831+3.803+1.466+4.154+1.532C4.427+1.583+4.571+2.338+5.038+2.392C5.316+2.424+5.426+2.148+5.089+2.036C4.832+1.951+4.691+1.96+4.591+1.669C4.475+1.33+4.749+1.368+4.926+1.163C5.026+1.048+5.129+0.79+5.025+0.668C4.922+0.546+4.873+0.636+4.824+0.733L4.828+0.733Z" fill-rule="evenodd" fill="#222b86" opacity="1"/>
<path d="M0.099+1.196C0.319+1.203+0.352+1.4+0.194+1.473C0.109+1.503+0.027+1.197+0.099+1.196ZM0.298+1.502C0.404+1.544+0.403+1.578+0.377+1.619C0.338+1.658+0.297+1.645+0.234+1.559C0.217+1.532+0.264+1.483+0.297+1.502L0.298+1.502ZM0.42+0.708C0.601+0.891+0.356+1.176+0.13+1.114C0.00600001+1.093+0.32+0.634+0.42+0.708ZM0.59+1.711C0.571+1.807+0.458+1.79+0.455+1.678C0.448+1.623+0.593+1.565+0.59+1.711ZM0.911+0.69C0.809+0.747+0.769+0.773+0.625+0.768C0.542+0.761+0.495+0.685+0.513+0.633C0.566+0.5+0.73+0.497+0.877+0.521C0.985+0.55+0.974+0.653+0.912+0.69L0.911+0.69ZM1.023+0.614C1.043+0.34+1.528+0.461+1.662+0.524C1.771+0.576+1.739+0.705+1.62+0.731C1.467+0.761+1.012+0.737+1.022+0.613L1.023+0.614ZM2.329+0.867C2.236+0.898+1.913+0.88+1.838+0.81C1.67+0.653+1.978+0.54+2.089+0.529C2.639+0.476+2.817+0.701+2.328+0.867L2.329+0.867ZM2.707+0.503C2.6+0.301+1.963+0.523+1.682+0.445C1.383+0.363+0.886+0.325+0.594+0.426C0.419+0.486+0.071+0.849+0.021+1.028C-0.071+1.351+0.163+1.641+0.424+1.79C0.645+1.917+0.747+1.727+0.644+1.63C0.536+1.528+0.375+1.585+0.368+1.315C0.36+1.027+0.804+0.817+1.057+0.8C1.354+0.78+1.724+0.925+2.021+0.961C2.277+0.992+2.872+0.812+2.708+0.503L2.707+0.503Z" fill-rule="evenodd" fill="#222b86" opacity="1"/>
<path d="M4.573+0.208C4.922+0.868+4.078+1.231+3.745+0.802C3.628+0.651+3.543+0.576+3.545+0.369C3.805+0.417+3.759+0.57+4.115+0.48C4.425+0.401+4.368+0.414+4.574+0.208L4.573+0.208ZM4.737+0.411C4.716+0.313+4.642-0.061+4.517+0.00899999C4.415+0.067+4.523+0.226+4.186+0.346C3.891+0.451+3.957+0.455+3.706+0.305C3.45+0.153+3.365+0.255+3.468+0.515C3.606+0.863+3.72+1.159+4.172+1.113C4.562+1.073+4.822+0.812+4.738+0.411L4.737+0.411Z" fill-rule="evenodd" fill="#222b86" opacity="1"/>
<path d="M1.156+1.085C1.209+1.27+0.742+1.545+0.624+1.375C0.563+1.287+0.745+1.185+0.809+1.153C0.954+1.079+1.142+1.051+1.156+1.086L1.156+1.085ZM1.217+1.065C1.056+0.798+0.43+1.192+0.565+1.41C0.721+1.661+1.292+1.35+1.217+1.065Z" fill-rule="evenodd" fill="#222b86" opacity="1"/>
<path d="M4.807+1.466C4.998+1.419+5.23+1.543+5.102+1.706C5.014+1.819+4.8+1.722+4.751+1.589C4.724+1.516+4.736+1.483+4.807+1.466ZM5.194+1.5C5.09+1.296+4.453+1.239+4.713+1.674C4.91+2.004+5.336+1.778+5.194+1.5Z" fill-rule="evenodd" fill="#222b86" opacity="1"/>
<path d="M3.273+2.053C3.158+1.943+3.127+1.698+3.278+1.695C3.406+1.692+3.481+1.888+3.405+2.032C3.364+2.109+3.338+2.116+3.273+2.054L3.273+2.053ZM3.488+2.105C3.593+1.887+3.449+1.566+3.229+1.624C3.027+1.677+3.103+2.031+3.28+2.16C3.383+2.234+3.436+2.215+3.489+2.105L3.488+2.105Z" fill-rule="evenodd" fill="#222b86" opacity="1"/>
<path d="M2.495+1.563C2.573+1.6+2.629+1.685+2.646+1.766C2.657+1.818+2.559+1.849+2.514+1.817C2.444+1.785+2.391+1.737+2.372+1.675C2.338+1.565+2.386+1.512+2.495+1.564L2.495+1.563ZM2.284+1.636C2.327+1.859+2.605+1.985+2.7+1.858C2.809+1.712+2.621+1.467+2.426+1.463C2.298+1.46+2.261+1.518+2.284+1.636Z" fill-rule="evenodd" fill="#222b86" opacity="1"/>
<path d="M1.643+1.825C1.697+1.793+1.785+1.783+1.847+1.805C1.921+1.832+1.946+1.886+1.88+1.937C1.817+1.986+1.704+1.983+1.636+1.941C1.574+1.902+1.582+1.861+1.643+1.825ZM1.542+1.956C1.575+2.01+1.639+2.027+1.737+2.028C1.831+2.029+1.897+2.017+1.938+1.974C2.017+1.891+1.996+1.813+1.9+1.762C1.806+1.712+1.689+1.723+1.592+1.779C1.513+1.825+1.488+1.868+1.542+1.956Z" fill-rule="evenodd" fill="#222b86" opacity="1"/>
<path d="M4.05+1.887C4.033+1.801+4.25+1.712+4.28+1.852C4.304+2.069+4.081+2.028+4.05+1.887ZM4.318+2.046C4.376+1.961+4.401+1.852+4.308+1.771C4.126+1.612+3.834+1.8+4.018+2.011C4.113+2.12+4.242+2.137+4.317+2.046L4.318+2.046Z" fill-rule="evenodd" fill="#222b86" opacity="1"/>
<path d="M5.295+1.091C5.393+1.093+5.413+1.161+5.356+1.232C5.288+1.289+5.195+1.251+5.184+1.183C5.187+1.125+5.229+1.096+5.295+1.092L5.295+1.091ZM5.423+1.267C5.581+0.983+5.226+0.965+5.14+1.088C5.042+1.228+5.265+1.433+5.423+1.267Z" fill-rule="evenodd" fill="#222b86" opacity="1"/>
<path d="M3.987+0.629C4.018+0.589+4.105+0.589+4.13+0.678C4.143+0.728+4.068+0.768+4.017+0.748C3.954+0.725+3.94+0.686+3.988+0.629L3.987+0.629ZM3.899+0.622C3.845+0.699+3.908+0.827+4.028+0.818C4.089+0.824+4.184+0.781+4.195+0.702C4.174+0.501+4.032+0.5+3.899+0.622Z" fill-rule="evenodd" fill="#222b86" opacity="1"/>
<path d="M1.049+2.121C1.06+2.226+0.904+2.234+0.905+2.127C0.901+2.066+1.022+2.037+1.049+2.121ZM0.842+2.183C0.941+2.335+1.147+2.245+1.114+2.098C1.084+1.962+0.77+1.973+0.842+2.183Z" fill-rule="evenodd" fill="#222b86" opacity="1"/>
<path d="M4.442+0.461C4.298+0.446+4.271+0.619+4.385+0.685C4.465+0.728+4.638+0.516+4.442+0.461Z" fill-rule="evenodd" fill="#222b86" opacity="1"/>
<path d="M4.225+0.76C4.29+0.83+4.302+0.819+4.342+0.75C4.291+0.66+4.229+0.734+4.225+0.76Z" fill-rule="evenodd" fill="#222b86" opacity="1"/>
</g>
</g>
</svg>
