<svg xmlns="http://www.w3.org/2000/svg" xmlns:xlink="http://www.w3.org/1999/xlink" xml:space="preserve" version="1.1" style="shape-rendering:geometricPrecision;text-rendering:geometricPrecision;image-rendering:optimizeQuality;" viewBox="0 0 60000 75000" x="0px" y="0px" fill-rule="evenodd" clip-rule="evenodd"><defs><style type="text/css">
   
    .fil0 {fill:black;fill-rule:nonzero}
   
  </style></defs><g><path class="fil0" d="M22484 5302c417,0 795,169 1069,443 274,273 443,651 443,1069 0,417 -169,795 -443,1069 -113,113 -243,208 -387,281l358 1160c219,-60 439,-118 660,-172 1581,-386 3222,-613 4906,-663 40,-61 86,-118 137,-169 137,-137 311,-236 507,-280l-4 -1744c-96,-35 -182,-90 -253,-161 -125,-125 -202,-298 -202,-489 0,-191 77,-364 202,-489 125,-125 298,-202 489,-202 191,0 364,77 489,202 125,125 202,298 202,489 0,191 -77,364 -202,489 -64,64 -141,116 -226,151l4 1763c182,48 344,143 473,272 55,55 104,116 145,181 1901,84 3745,393 5505,902 720,208 1425,449 2115,722 24,-36 52,-69 83,-100 125,-125 298,-202 489,-202 191,0 364,77 489,202 125,125 202,298 202,489 0,50 -5,100 -16,147 821,381 1617,809 2383,1278 31,-36 63,-70 97,-104 369,-369 878,-597 1440,-597 562,0 1071,228 1440,597 369,369 597,878 597,1440 0,562 -228,1071 -597,1440 -369,369 -878,597 -1440,597 -562,0 -1071,-228 -1440,-597 -369,-369 -597,-878 -597,-1440 0,-332 79,-645 220,-922 -766,-469 -1562,-894 -2384,-1272 -111,77 -245,123 -390,124l-2067 3957c3,3 6,6 10,9 105,105 176,243 196,397 590,282 1162,597 1712,944 2267,1427 4171,3378 5542,5683 112,190 49,435 -141,547 -190,112 -435,49 -547,-141 -1306,-2197 -3119,-4056 -5279,-5415 -532,-335 -1086,-639 -1658,-911 -94,48 -201,76 -314,76 -191,0 -364,-77 -489,-202 -82,-82 -143,-184 -176,-299 -1360,-538 -2812,-896 -4325,-1045 -79,261 -222,494 -410,682 -296,297 -706,480 -1158,480 -452,0 -862,-183 -1158,-480 -189,-189 -332,-424 -411,-687 -1296,123 -2546,400 -3729,811 -1311,455 -2546,1076 -3681,1838 -183,123 -431,74 -553,-109 -123,-183 -74,-431 109,-553 1188,-798 2485,-1450 3865,-1929 1259,-437 2583,-729 3953,-857 65,-321 224,-608 447,-831 252,-252 586,-422 958,-468l-5 -2624c-197,-44 -373,-143 -511,-281 -189,-189 -306,-450 -306,-739 0,-22 1,-43 2,-64 -1588,59 -3134,278 -4622,642 -211,52 -422,106 -631,164l124 402c160,18 304,90 412,198 125,125 202,298 202,489 0,191 -77,364 -202,489 -125,125 -298,202 -489,202 -191,0 -364,-77 -489,-202 -125,-125 -202,-298 -202,-489 0,-191 77,-364 202,-489 26,-26 53,-49 83,-71l-121 -392c-1413,421 -2769,974 -4053,1645 -1294,675 -2516,1470 -3652,2370 20,-1 40,-1 61,-1 417,0 795,169 1069,443 274,273 443,651 443,1069 0,417 -169,795 -443,1069 -273,274 -651,443 -1069,443 -417,0 -795,-169 -1069,-443 -274,-273 -443,-651 -443,-1069 0,-98 9,-193 27,-286 -41,39 -83,77 -124,116 -1550,1467 -2896,3147 -3992,4992l-430 -254c1120,-1885 2495,-3601 4078,-5100 1579,-1495 3366,-2774 5313,-3790 1312,-684 2695,-1249 4137,-1680l-355 -1149c-67,9 -136,14 -205,14 -417,0 -795,-169 -1069,-443 -274,-273 -443,-651 -443,-1069 0,-417 169,-795 443,-1069 107,-107 229,-197 363,-268l-443 -1435c-2109,636 -4117,1503 -5994,2573 -4141,2359 -7651,5700 -10211,9707 15,-1 29,-1 44,-1 289,0 550,117 739,306 189,189 306,450 306,739 0,289 -117,550 -306,739 -189,189 -450,306 -739,306 -288,0 -550,-117 -739,-306 -189,-189 -306,-450 -306,-739 0,-167 39,-325 109,-464l-38 -22c2638,-4442 6400,-8139 10894,-10698 1775,-1011 3665,-1845 5644,-2477 -124,-53 -236,-129 -329,-223 -189,-189 -306,-450 -306,-739 0,-289 117,-550 306,-739 189,-189 450,-306 739,-306 289,0 550,117 739,306 189,189 306,450 306,739 0,217 -66,419 -180,586 2481,-671 5090,-1029 7783,-1029 3505,0 6868,606 9991,1719 35,-50 74,-97 117,-140 189,-189 450,-306 739,-306 289,0 550,117 739,306 189,189 306,450 306,739 0,51 -4,100 -11,149 3087,1346 5903,3202 8340,5461 238,-156 523,-247 829,-247 417,0 795,169 1069,443 274,273 443,651 443,1069 0,417 -169,795 -443,1069 -273,274 -651,443 -1069,443 -417,0 -795,-169 -1069,-443 -274,-273 -443,-651 -443,-1069 0,-348 118,-669 316,-924 -2385,-2206 -5140,-4019 -8160,-5338 -33,45 -69,87 -108,127 -189,189 -450,306 -739,306 -288,0 -550,-117 -739,-306 -189,-189 -306,-450 -306,-739 0,-45 3,-89 8,-133 -3066,-1091 -6369,-1686 -9810,-1686 -2768,0 -5446,384 -7983,1103l438 1418c76,-12 153,-18 232,-18zm-1525 44876c-191,0 -364,-77 -489,-202 -125,-125 -202,-298 -202,-489 0,-50 5,-100 16,-147 -821,-381 -1616,-809 -2383,-1278 -31,36 -63,70 -97,104 -369,369 -878,597 -1440,597 -562,0 -1071,-228 -1440,-597 -369,-369 -597,-878 -597,-1440 0,-562 228,-1071 597,-1440 369,-369 878,-597 1440,-597 562,0 1071,228 1440,597 369,369 597,878 597,1440 0,332 -79,645 -220,922 766,469 1562,894 2384,1272 111,-77 245,-123 390,-124l2067 -3957c-3,-3 -6,-6 -10,-9 -105,-105 -176,-243 -196,-397 -590,-282 -1162,-597 -1712,-944 -2267,-1427 -4171,-3378 -5542,-5683 -112,-190 -49,-435 141,-547 190,-112 435,-49 547,141 1306,2197 3119,4056 5279,5415 532,335 1086,639 1658,911 94,-48 201,-76 314,-76 191,0 364,77 489,202 82,82 143,184 176,299 1360,538 2812,896 4325,1045 79,-261 222,-494 410,-682 297,-297 706,-480 1158,-480 452,0 862,183 1158,480 189,189 332,424 411,687 1296,-123 2546,-400 3729,-811 1311,-455 2546,-1076 3681,-1838 183,-123 431,-74 553,109 123,183 74,431 -109,553 -1188,798 -2485,1450 -3865,1929 -1259,437 -2583,729 -3953,857 -65,321 -224,608 -447,831 -252,252 -586,422 -958,468l5 2624c197,44 373,143 511,281 189,189 306,450 306,739 0,22 -1,43 -2,64 1588,-59 3134,-278 4622,-642 211,-52 422,-106 631,-164l-124 -402c-160,-18 -304,-90 -412,-198 -125,-125 -202,-298 -202,-489 0,-191 77,-364 202,-489 125,-125 298,-202 489,-202 191,0 364,77 489,202 125,125 202,298 202,489 0,191 -77,364 -202,489 -26,26 -53,49 -83,71l121 392c1413,-421 2769,-974 4053,-1645 1294,-675 2516,-1470 3652,-2370 -20,1 -40,1 -61,1 -417,0 -795,-169 -1069,-443 -274,-273 -443,-651 -443,-1069 0,-417 169,-795 443,-1069 273,-274 651,-443 1069,-443 417,0 795,169 1069,443 274,273 443,651 443,1069 0,98 -9,193 -27,286 41,-39 83,-77 124,-116 1550,-1467 2896,-3147 3992,-4992l430 254c-1120,1885 -2495,3601 -4078,5100 -1579,1495 -3366,2774 -5313,3790 -1312,684 -2695,1249 -4137,1680l355 1149c67,-9 136,-14 205,-14 417,0 795,169 1069,443 274,273 443,651 443,1069 0,417 -169,795 -443,1069 -107,107 -229,197 -363,268l443 1435c2109,-636 4117,-1503 5994,-2573 4141,-2359 7651,-5700 10211,-9707 -15,1 -29,1 -44,1 -288,0 -550,-117 -739,-306 -189,-189 -306,-450 -306,-739 0,-289 117,-550 306,-739 189,-189 450,-306 739,-306 289,0 550,117 739,306 189,189 306,450 306,739 0,167 -39,325 -109,464l38 22c-2638,4442 -6400,8139 -10894,10698 -1775,1011 -3665,1845 -5644,2477 124,53 236,129 329,223 189,189 306,450 306,739 0,289 -117,550 -306,739 -189,189 -450,306 -739,306 -288,0 -550,-117 -739,-306 -189,-189 -306,-450 -306,-739 0,-217 66,-419 180,-586 -2481,671 -5090,1029 -7783,1029 -3505,0 -6868,-606 -9991,-1719 -35,50 -74,97 -117,140 -189,189 -450,306 -739,306 -288,0 -550,-117 -739,-306 -189,-189 -306,-450 -306,-739 0,-51 4,-100 11,-149 -3087,-1346 -5903,-3202 -8340,-5461 -238,156 -523,247 -829,247 -417,0 -795,-169 -1069,-443 -274,-273 -443,-651 -443,-1069 0,-417 169,-795 443,-1069 273,-274 651,-443 1069,-443 417,0 795,169 1069,443 274,273 443,651 443,1069 0,348 -118,669 -316,924 2385,2206 5139,4019 8160,5338 33,-45 69,-87 108,-127 189,-189 450,-306 739,-306 289,0 550,117 739,306 189,189 306,450 306,739 0,45 -3,89 -8,133 3066,1091 6369,1686 9810,1686 2768,0 5446,-384 7983,-1103l-438 -1418c-76,12 -153,18 -232,18 -417,0 -795,-169 -1069,-443 -274,-273 -443,-651 -443,-1069 0,-417 169,-795 443,-1069 113,-113 243,-208 387,-281l-358 -1160c-219,60 -439,118 -660,172 -1581,386 -3222,613 -4906,663 -40,61 -86,118 -137,169 -137,137 -311,236 -507,280l4 1744c96,35 182,90 253,161 125,125 202,298 202,489 0,191 -77,364 -202,489 -125,125 -298,202 -489,202 -191,0 -364,-77 -489,-202 -125,-125 -202,-298 -202,-489 0,-191 77,-364 202,-489 64,-64 141,-116 226,-151l-4 -1763c-182,-48 -344,-143 -473,-272 -55,-55 -104,-116 -145,-181 -1901,-84 -3745,-393 -5505,-902 -720,-208 -1425,-449 -2115,-722 -24,36 -52,69 -83,100 -125,125 -298,202 -489,202zm463 -1204c9,8 17,16 25,24 102,102 172,236 195,386 698,279 1412,525 2141,736 1664,481 3408,779 5207,872 -1,-16 -1,-33 -1,-49 0,-289 117,-550 306,-739 128,-128 289,-223 469,-271l-5 -2649c-333,-61 -631,-223 -860,-453 -224,-224 -383,-512 -448,-835 -1592,-153 -3120,-527 -4552,-1091 -113,80 -251,127 -399,127 -6,0 -12,0 -18,0l-2059 3942zm8842 1884l0 165 1 0c9,-25 13,-52 13,-80 0,-30 -5,-58 -15,-85zm-10864 4284c19,8 38,15 57,23 10,4 21,8 32,12 -27,-17 -57,-29 -89,-35zm-3910 -7542c224,224 533,362 874,362 342,0 651,-138 874,-362 224,-224 362,-533 362,-874 0,-342 -138,-651 -362,-874 -224,-224 -533,-362 -874,-362 -342,0 -651,138 -874,362 -224,224 -362,533 -362,874 0,342 138,651 362,874zm-4002 -6417c-417,0 -795,-169 -1069,-443 -274,-273 -443,-651 -443,-1069 0,-417 169,-795 443,-1069 273,-274 651,-443 1069,-443 417,0 795,169 1069,443 274,273 443,651 443,1069 0,417 -169,795 -443,1069 -273,274 -651,443 -1069,443zm-503 -1008c129,129 307,208 503,208 196,0 374,-80 503,-208 129,-129 208,-307 208,-503 0,-196 -80,-374 -208,-503 -129,-129 -307,-208 -503,-208 -196,0 -374,80 -503,208 -129,129 -208,307 -208,503 0,196 80,374 208,503zm43668 2634c44,44 106,72 173,72 68,0 129,-27 173,-72 44,-44 72,-106 72,-173 0,-68 -27,-129 -72,-173 -44,-44 -106,-72 -173,-72 -68,0 -129,27 -173,72 -44,44 -72,106 -72,173 0,68 27,129 72,173zm-10701 2235c129,129 307,208 503,208 196,0 374,-80 503,-208 129,-129 208,-307 208,-503 0,-196 -80,-374 -208,-503 -129,-129 -307,-208 -503,-208 -196,0 -374,80 -503,208 -129,129 -208,307 -208,503 0,196 80,374 208,503zm-14487 1222c152,152 361,246 593,246 232,0 441,-94 593,-246 152,-152 246,-361 246,-593 0,-232 -94,-441 -246,-593 -152,-152 -361,-246 -593,-246 -232,0 -441,94 -593,246 -152,152 -246,361 -246,593 0,232 94,441 246,593zm-20814 2746c129,129 307,208 503,208 196,0 374,-80 503,-208 129,-129 208,-307 208,-503 0,-196 -80,-374 -208,-503 -129,-129 -307,-208 -503,-208 -196,0 -374,80 -503,208 -129,129 -208,307 -208,503 0,196 80,374 208,503zm35645 1379c-191,0 -364,-77 -489,-202 -125,-125 -202,-298 -202,-489 0,-191 77,-364 202,-489 125,-125 298,-202 489,-202 191,0 364,77 489,202 125,125 202,298 202,489 0,191 -77,364 -202,489 -125,125 -298,202 -489,202zm-5618 7041c44,44 106,72 173,72 68,0 129,-27 173,-72 44,-44 72,-106 72,-173 0,-68 -27,-129 -72,-173 -44,-44 -106,-72 -173,-72 -68,0 -129,27 -173,72 -44,44 -72,106 -72,173 0,68 27,129 72,173zm-1665 -3742c129,129 307,208 503,208 196,0 374,-80 503,-208 129,-129 208,-307 208,-503 0,-196 -80,-374 -208,-503 -129,-129 -307,-208 -503,-208 -196,0 -374,80 -503,208 -129,129 -208,307 -208,503 0,196 80,374 208,503zm1565 -42664c-9,-8 -17,-16 -25,-24 -102,-102 -172,-236 -195,-386 -698,-279 -1412,-525 -2141,-736 -1664,-481 -3408,-779 -5207,-872 1,16 1,33 1,49 0,289 -117,550 -306,739 -128,128 -289,223 -469,271l5 2649c333,61 631,223 860,453 224,224 383,512 448,835 1592,153 3120,527 4552,1091 113,-80 251,-127 399,-127 6,0 12,0 18,0l2059 -3942zm-8842 -1884l0 -165 -1 0c-9,25 -13,52 -13,80 0,30 5,58 15,85zm10864 -4284c-19,-8 -38,-15 -57,-23 -10,-4 -21,-8 -32,-12 27,17 57,29 89,35zm3910 7542c-224,-224 -533,-362 -874,-362 -342,0 -651,138 -874,362 -224,224 -362,533 -362,874 0,342 138,651 362,874 224,224 533,362 874,362 342,0 651,-138 874,-362 224,-224 362,-533 362,-874 0,-342 -138,-651 -362,-874zm4002 6417c417,0 795,169 1069,443 274,273 443,651 443,1069 0,417 -169,795 -443,1069 -273,274 -651,443 -1069,443 -417,0 -795,-169 -1069,-443 -274,-273 -443,-651 -443,-1069 0,-417 169,-795 443,-1069 273,-274 651,-443 1069,-443zm503 1008c-129,-129 -307,-208 -503,-208 -196,0 -374,80 -503,208 -129,129 -208,307 -208,503 0,196 80,374 208,503 129,129 307,208 503,208 196,0 374,-80 503,-208 129,-129 208,-307 208,-503 0,-196 -80,-374 -208,-503zm-43668 -2634c-44,-44 -106,-72 -173,-72 -68,0 -129,27 -173,72 -44,44 -72,106 -72,173 0,68 27,129 72,173 44,44 106,72 173,72 68,0 129,-27 173,-72 44,-44 72,-106 72,-173 0,-68 -27,-129 -72,-173zm10701 -2235c-129,-129 -307,-208 -503,-208 -196,0 -374,80 -503,208 -129,129 -208,307 -208,503 0,196 80,374 208,503 129,129 307,208 503,208 196,0 374,-80 503,-208 129,-129 208,-307 208,-503 0,-196 -80,-374 -208,-503zm14487 -1222c-152,-152 -361,-246 -593,-246 -232,0 -441,94 -593,246 -152,152 -246,361 -246,593 0,232 94,441 246,593 152,152 361,246 593,246 232,0 441,-94 593,-246 152,-152 246,-361 246,-593 0,-232 -94,-441 -246,-593zm20814 -2746c-129,-129 -307,-208 -503,-208 -196,0 -374,80 -503,208 -129,129 -208,307 -208,503 0,196 80,374 208,503 129,129 307,208 503,208 196,0 374,-80 503,-208 129,-129 208,-307 208,-503 0,-196 -80,-374 -208,-503zm-35645 -1379c191,0 364,77 489,202 125,125 202,298 202,489 0,191 -77,364 -202,489 -125,125 -298,202 -489,202 -191,0 -364,-77 -489,-202 -125,-125 -202,-298 -202,-489 0,-191 77,-364 202,-489 125,-125 298,-202 489,-202zm103 691l-103 0 73 73c3,-16 20,-59 30,-73zm14261 -4657l-103 0 73 73c3,-16 20,-59 30,-73zm-6248 5242l-103 0 73 73c3,-16 20,-59 30,-73zm-2498 -8318c-44,-44 -106,-72 -173,-72 -68,0 -129,27 -173,72 -44,44 -72,106 -72,173 0,68 27,129 72,173 44,44 106,72 173,72 68,0 129,-27 173,-72 44,-44 72,-106 72,-173 0,-68 -27,-129 -72,-173zm1665 3742c-129,-129 -307,-208 -503,-208 -196,0 -374,80 -503,208 -129,129 -208,307 -208,503 0,196 80,374 208,503 129,129 307,208 503,208 196,0 374,-80 503,-208 129,-129 208,-307 208,-503 0,-196 -80,-374 -208,-503z"/></g><text x="0" y="60015" fill="#000000" font-size="5px" font-weight="bold" font-family="'Helvetica Neue', Helvetica, Arial-Unicode, Arial, Sans-serif">Created by Olena Panasovska</text><text x="0" y="60020" fill="#000000" font-size="5px" font-weight="bold" font-family="'Helvetica Neue', Helvetica, Arial-Unicode, Arial, Sans-serif">from the Noun Project</text></svg>